<svg width="9" height="12" viewBox="0 0 9 12" fill="none" xmlns="http://www.w3.org/2000/svg">
<path d="M8.31219 1.41021V0.202401C8.31219 0.0977137 8.19187 0.0399012 8.11062 0.103964L1.06687 5.60553C1.00703 5.65207 0.958602 5.71166 0.925291 5.77977C0.89198 5.84787 0.874664 5.92268 0.874664 5.9985C0.874664 6.07431 0.89198 6.14912 0.925291 6.21722C0.958602 6.28533 1.00703 6.34492 1.06687 6.39146L8.11062 11.893C8.19344 11.9571 8.31219 11.8993 8.31219 11.7946V10.5868C8.31219 10.5102 8.27625 10.4368 8.21688 10.3899L2.59187 5.99928L8.21688 1.60709C8.27625 1.56021 8.31219 1.48678 8.31219 1.41021Z" fill="#8C8C8C"/>
</svg>
