<svg width="12" height="12" viewBox="0 0 12 12" fill="none" xmlns="http://www.w3.org/2000/svg">
<path d="M2.26393 6L6.4108 0.701562C6.47487 0.620312 6.41705 0.5 6.31237 0.5H5.10455C5.02799 0.5 4.95455 0.535938 4.90768 0.595313L0.918616 5.69219C0.84953 5.78022 0.811981 5.88888 0.811981 6.00078C0.811981 6.11268 0.84953 6.22135 0.918616 6.30937L4.90768 11.4047C4.95455 11.4656 5.02799 11.5 5.10455 11.5H6.31237C6.41705 11.5 6.47487 11.3797 6.4108 11.2984L2.26393 6ZM7.01393 6L11.1608 0.701562C11.2249 0.620312 11.1671 0.5 11.0624 0.5H9.85455C9.77799 0.5 9.70455 0.535938 9.65768 0.595313L5.66862 5.69219C5.59953 5.78022 5.56198 5.88888 5.56198 6.00078C5.56198 6.11268 5.59953 6.22135 5.66862 6.30937L9.65768 11.4047C9.70455 11.4656 9.77799 11.5 9.85455 11.5H11.0624C11.1671 11.5 11.2249 11.3797 11.1608 11.2984L7.01393 6Z" fill="#8C8C8C"/>
</svg>
