<svg width="24" height="24" viewBox="0 0 24 24" fill="none" xmlns="http://www.w3.org/2000/svg">
<path fill-rule="evenodd" clip-rule="evenodd" d="M17.7544 16.4959L23.7895 22.531C24.0094 22.7509 24.0094 23.1064 23.7895 23.3263L23.3263 23.7895C23.1064 24.0094 22.7509 24.0094 22.531 23.7895L16.4959 17.7544C16.393 17.6468 16.3322 17.5064 16.3322 17.3567V16.8795C14.5965 18.4795 12.2807 19.462 9.731 19.462C4.35556 19.462 0 15.1064 0 9.731C0 4.35556 4.35556 0 9.731 0C15.1064 0 19.462 4.35556 19.462 9.731C19.462 12.2807 18.4795 14.5965 16.8749 16.3322H17.3567C17.5064 16.3322 17.6468 16.3883 17.7544 16.4959ZM1.49706 9.73099C1.49706 14.283 5.17893 17.9649 9.73097 17.9649C14.283 17.9649 17.9649 14.283 17.9649 9.73099C17.9649 5.17895 14.283 1.49707 9.73097 1.49707C5.17893 1.49707 1.49706 5.17895 1.49706 9.73099Z" fill="#1890FF"/>
</svg>
