<svg width="16" height="16" viewBox="0 0 16 16" fill="none" xmlns="http://www.w3.org/2000/svg">
<path fill-rule="evenodd" clip-rule="evenodd" d="M8 16C12.4183 16 16 12.4183 16 8C16 3.58172 12.4183 0 8 0C3.58172 0 0 3.58172 0 8C0 12.4183 3.58172 16 8 16Z" fill="#5FCC79"/>
<path fill-rule="evenodd" clip-rule="evenodd" d="M7.748 11.408C7.668 11.408 7.598 11.378 7.538 11.318C7.478 11.258 7.448 11.188 7.448 11.108V8.912H5.312C5.224 8.912 5.15 8.884 5.09 8.828C5.03 8.772 5 8.7 5 8.612V7.736C5 7.648 5.03 7.574 5.09 7.514C5.15 7.454 5.224 7.424 5.312 7.424H7.448V5.3C7.448 5.212 7.478 5.14 7.538 5.084C7.598 5.028 7.668 5 7.748 5H8.732C8.82 5 8.892 5.028 8.948 5.084C9.004 5.14 9.032 5.212 9.032 5.3V7.424H11.156C11.244 7.424 11.316 7.454 11.372 7.514C11.428 7.574 11.456 7.648 11.456 7.736V8.612C11.456 8.7 11.428 8.772 11.372 8.828C11.316 8.884 11.244 8.912 11.156 8.912H9.032V11.108C9.032 11.188 9.004 11.258 8.948 11.318C8.892 11.378 8.82 11.408 8.732 11.408H7.748Z" fill="white"/>
</svg>
