<svg width="24" height="24" viewBox="0 0 24 24" fill="none" xmlns="http://www.w3.org/2000/svg">
<path fill-rule="evenodd" clip-rule="evenodd" d="M12 24C18.6274 24 24 18.6274 24 12C24 5.37258 18.6274 0 12 0C5.37258 0 0 5.37258 0 12C0 18.6274 5.37258 24 12 24Z" fill="#1890FF"/>
<path fill-rule="evenodd" clip-rule="evenodd" d="M11.622 17.112C11.502 17.112 11.397 17.067 11.307 16.977C11.217 16.887 11.172 16.782 11.172 16.662V13.368H7.968C7.836 13.368 7.725 13.326 7.635 13.242C7.545 13.158 7.5 13.05 7.5 12.918V11.604C7.5 11.472 7.545 11.361 7.635 11.271C7.725 11.181 7.836 11.136 7.968 11.136H11.172V7.95C11.172 7.818 11.217 7.71 11.307 7.626C11.397 7.542 11.502 7.5 11.622 7.5H13.098C13.23 7.5 13.338 7.542 13.422 7.626C13.506 7.71 13.548 7.818 13.548 7.95V11.136H16.734C16.866 11.136 16.974 11.181 17.058 11.271C17.142 11.361 17.184 11.472 17.184 11.604V12.918C17.184 13.05 17.142 13.158 17.058 13.242C16.974 13.326 16.866 13.368 16.734 13.368H13.548V16.662C13.548 16.782 13.506 16.887 13.422 16.977C13.338 17.067 13.23 17.112 13.098 17.112H11.622Z" fill="white"/>
</svg>
