<svg width="25" height="24" viewBox="0 0 25 24" fill="none" xmlns="http://www.w3.org/2000/svg">
<path d="M24.3488 13.4564C24.0834 11.1104 22.9551 8.94698 21.1834 7.38658C19.4116 5.82618 17.123 4.98031 14.7623 5.0134H2.45063L5.08652 1.29071C5.14964 1.20278 5.19451 1.10311 5.21851 0.997566C5.2425 0.892025 5.24513 0.782748 5.22623 0.676175C5.20734 0.569603 5.1673 0.46789 5.10848 0.377032C5.04967 0.286173 4.97326 0.208006 4.88376 0.147136C4.70827 0.0240012 4.49117 -0.0246462 4.27992 0.0118291C4.06867 0.0483044 3.88045 0.166935 3.75641 0.341787L0.139156 5.41081C0.0557432 5.52959 0.0109863 5.67119 0.0109863 5.81633C0.0109863 5.96147 0.0557432 6.10308 0.139156 6.22185L3.76452 11.299C3.89591 11.4504 4.07872 11.5478 4.27767 11.5723C4.47661 11.5969 4.67761 11.5469 4.84188 11.432C5.00615 11.3171 5.12205 11.1455 5.16723 10.9502C5.2124 10.7549 5.18365 10.5498 5.08652 10.3744L2.45063 6.63549H14.7623C16.7498 6.60897 18.6741 7.33345 20.1506 8.66413C21.6271 9.99481 22.5471 11.8337 22.7267 13.8132C22.7978 14.8669 22.6517 15.9239 22.2976 16.9188C21.9435 17.9137 21.3888 18.8252 20.668 19.597C19.9472 20.3688 19.0755 20.9843 18.1071 21.4055C17.1387 21.8266 16.0941 22.0444 15.038 22.0453H0.828544C0.613441 22.0453 0.407149 22.1308 0.255049 22.2829C0.102949 22.435 0.0174997 22.6413 0.0174997 22.8564C0.0174997 23.0715 0.102949 23.2778 0.255049 23.4299C0.407149 23.582 0.613441 23.6674 0.828544 23.6674H15.0218C16.3244 23.672 17.6134 23.404 18.8062 22.8806C19.999 22.3571 21.069 21.5899 21.9474 20.6282C22.8259 19.6664 23.4934 18.5315 23.907 17.2963C24.3205 16.0612 24.471 14.7532 24.3488 13.4564Z" fill="#1890FF"/>
</svg>
