<svg width="21" height="24" viewBox="0 0 21 24" fill="none" xmlns="http://www.w3.org/2000/svg">
<path fill-rule="evenodd" clip-rule="evenodd" d="M19.5 0H1.5C0.670312 0 0 0.674999 0 1.5V22.5C0 23.325 0.670312 24 1.5 24H19.5C20.3297 24 21 23.325 21 22.5V1.5C21 0.674999 20.3297 0 19.5 0ZM5.25003 8.25003H6.75003C7.57972 8.25003 8.25003 7.57503 8.25003 6.75002V5.25001C8.25003 4.425 7.57972 3.75 6.75003 3.75H5.25003C4.42034 3.75 3.75003 4.425 3.75003 5.25001V6.75002C3.75003 7.57503 4.42034 8.25003 5.25003 8.25003ZM6.75003 20.25H5.25003C4.42034 20.25 3.75003 19.575 3.75003 18.75V17.25C3.75003 16.425 4.42034 15.75 5.25003 15.75H6.75003C7.57972 15.75 8.25003 16.425 8.25003 17.25V18.75C8.25003 19.575 7.57972 20.25 6.75003 20.25ZM6.75002 17.25H5.25002V18.75H6.75002V17.25ZM6.75002 5.25H5.25002V6.75H6.75002V5.25ZM1.49999 22.5H19.5V1.49997H1.49999V22.5ZM10.125 6.75H16.125C16.3313 6.75 16.5 6.58125 16.5 6.375V5.625C16.5 5.41875 16.3313 5.25 16.125 5.25H10.125C9.91875 5.25 9.75 5.41875 9.75 5.625V6.375C9.75 6.58125 9.91875 6.75 10.125 6.75ZM16.125 12.75H10.125C9.91875 12.75 9.75 12.5813 9.75 12.375V11.625C9.75 11.4188 9.91875 11.25 10.125 11.25H16.125C16.3313 11.25 16.5 11.4188 16.5 11.625V12.375C16.5 12.5813 16.3313 12.75 16.125 12.75ZM10.125 18.75H16.125C16.3313 18.75 16.5 18.5813 16.5 18.375V17.625C16.5 17.4188 16.3313 17.25 16.125 17.25H10.125C9.91875 17.25 9.75 17.4188 9.75 17.625V18.375C9.75 18.5813 9.91875 18.75 10.125 18.75ZM5.9156 13.425C5.81717 13.5234 5.65779 13.5234 5.55935 13.425L3.82967 11.6718C3.73123 11.5734 3.73123 11.414 3.82967 11.3156L4.42498 10.7249C4.52342 10.6265 4.68279 10.6265 4.78123 10.7249L5.74685 11.7046L7.9781 9.49213C8.07654 9.39369 8.23591 9.39369 8.33435 9.49213L8.92498 10.0874C9.02341 10.1859 9.02341 10.3453 8.92498 10.4437L5.9156 13.425Z" fill="#1890FF"/>
</svg>
