<svg width="25" height="24" viewBox="0 0 25 24" fill="none" xmlns="http://www.w3.org/2000/svg">
<path d="M2.83073 3.75H1.69848C1.59468 3.75 1.50977 3.83437 1.50977 3.9375V20.0625C1.50977 20.1656 1.59468 20.25 1.69848 20.25H2.83073C2.93452 20.25 3.01944 20.1656 3.01944 20.0625V3.9375C3.01944 3.83437 2.93452 3.75 2.83073 3.75ZM22.4801 3.75H21.3479C21.2441 3.75 21.1592 3.83437 21.1592 3.9375V20.0625C21.1592 20.1656 21.2441 20.25 21.3479 20.25H22.4801C22.5839 20.25 22.6688 20.1656 22.6688 20.0625V3.9375C22.6688 3.83437 22.5839 3.75 22.4801 3.75ZM4.71783 17.25H7.35977C7.46356 17.25 7.54848 17.1656 7.54848 17.0625V3.9375C7.54848 3.83437 7.46356 3.75 7.35977 3.75H4.71783C4.61404 3.75 4.52912 3.83437 4.52912 3.9375V17.0625C4.52912 17.1656 4.61404 17.25 4.71783 17.25ZM12.2898 17.25H13.4221C13.5259 17.25 13.6108 17.1656 13.6108 17.0625V3.9375C13.6108 3.83437 13.5259 3.75 13.4221 3.75H12.2898C12.186 3.75 12.1011 3.83437 12.1011 3.9375V17.0625C12.1011 17.1656 12.186 17.25 12.2898 17.25ZM15.262 17.25H19.4608C19.5646 17.25 19.6495 17.1656 19.6495 17.0625V3.9375C19.6495 3.83437 19.5646 3.75 19.4608 3.75H15.262C15.1582 3.75 15.0733 3.83437 15.0733 3.9375V17.0625C15.0733 17.1656 15.1582 17.25 15.262 17.25ZM9.24686 17.25H10.3791C10.4829 17.25 10.5678 17.1656 10.5678 17.0625V3.9375C10.5678 3.83437 10.4829 3.75 10.3791 3.75H9.24686C9.14307 3.75 9.05815 3.83437 9.05815 3.9375V17.0625C9.05815 17.1656 9.14307 17.25 9.24686 17.25ZM7.38335 18.75H4.74142C4.63763 18.75 4.55271 18.8344 4.55271 18.9375V20.0625C4.55271 20.1656 4.63763 20.25 4.74142 20.25H7.38335C7.48714 20.25 7.57206 20.1656 7.57206 20.0625V18.9375C7.57206 18.8344 7.48714 18.75 7.38335 18.75ZM13.4457 18.75H12.3134C12.2096 18.75 12.1247 18.8344 12.1247 18.9375V20.0625C12.1247 20.1656 12.2096 20.25 12.3134 20.25H13.4457C13.5494 20.25 13.6344 20.1656 13.6344 20.0625V18.9375C13.6344 18.8344 13.5494 18.75 13.4457 18.75ZM19.4844 18.75H15.2856C15.1818 18.75 15.0969 18.8344 15.0969 18.9375V20.0625C15.0969 20.1656 15.1818 20.25 15.2856 20.25H19.4844C19.5882 20.25 19.6731 20.1656 19.6731 20.0625V18.9375C19.6731 18.8344 19.5882 18.75 19.4844 18.75ZM10.4027 18.75H9.27045C9.16666 18.75 9.08174 18.8344 9.08174 18.9375V20.0625C9.08174 20.1656 9.16666 20.25 9.27045 20.25H10.4027C10.5065 20.25 10.5914 20.1656 10.5914 20.0625V18.9375C10.5914 18.8344 10.5065 18.75 10.4027 18.75Z" fill="#1890FF"/>
</svg>
