<svg width="25" height="24" viewBox="0 0 25 24" fill="none" xmlns="http://www.w3.org/2000/svg">
<path d="M19.6258 1.5H4.52901C4.11149 1.5 3.77417 1.83516 3.77417 2.25V21.75C3.77417 22.1648 4.11149 22.5 4.52901 22.5H19.6258C20.0433 22.5 20.3806 22.1648 20.3806 21.75V2.25C20.3806 1.83516 20.0433 1.5 19.6258 1.5ZM13.4927 3.1875H15.7572V8.10703L14.6604 7.3125L13.4927 8.14219V3.1875ZM18.6822 20.8125H5.47256V3.1875H12.0774V10.1461C12.0774 10.2234 12.101 10.3008 12.1482 10.3641C12.1768 10.4043 12.2132 10.4385 12.2552 10.4646C12.2972 10.4908 12.344 10.5084 12.393 10.5165C12.4419 10.5245 12.4919 10.5229 12.5402 10.5116C12.5885 10.5003 12.634 10.4797 12.6742 10.4508L14.6509 9.04688L16.571 10.4391C16.6347 10.4859 16.7126 10.5117 16.7928 10.5117C17.0004 10.5117 17.1702 10.343 17.1702 10.1367V3.1875H18.6799V20.8125H18.6822Z" fill="#1890FF"/>
</svg>
