<svg width="20" height="20" viewBox="0 0 20 20" fill="none" xmlns="http://www.w3.org/2000/svg">
<path fill-rule="evenodd" clip-rule="evenodd" d="M7.20639 6.89927L7.19736 1.54351C7.19736 1.37371 7.06008 1.23643 6.89209 1.23824L6.63559 1.23824C6.4658 1.23824 6.32851 1.37552 6.32851 1.54531L6.33755 5.72335L0.70357 0.0894132C0.584351 -0.0298044 0.389266 -0.0298044 0.270048 0.0894132L0.0894137 0.270046C-0.0298047 0.389264 -0.0298045 0.584347 0.0894139 0.703564L5.72339 6.3375L1.54352 6.32666C1.37372 6.32666 1.23644 6.46394 1.23644 6.63374L1.23644 6.89024C1.23644 7.06003 1.37372 7.19731 1.54352 7.19731L6.89932 7.20634C7.06911 7.20634 7.20639 7.06906 7.20639 6.89927ZM13.8413 1.10229L12.0592 5.25623C11.8501 5.74655 11.989 6.31601 12.4003 6.65505L14.466 8.34514C13.1585 11.0035 11.0078 13.1542 8.34946 14.4616L6.65938 12.396C6.32046 11.9847 5.75114 11.8459 5.26094 12.0549L1.1028 13.837C0.570717 14.0669 0.278874 14.6441 0.409134 15.209L1.30208 19.072C1.42511 19.616 1.90943 20.0015 2.46713 19.9995C12.1742 19.9995 19.9999 12.1315 19.9999 2.46663C20.001 1.9071 19.6142 1.42152 19.0687 1.29736L15.2094 0.408629C14.6456 0.278472 14.0695 0.570571 13.8413 1.10229ZM18.7736 2.48962C18.7621 11.4762 11.4805 18.7616 2.4939 18.7693L1.61245 14.9522L5.72807 13.1893L8.00835 15.9793C11.9634 14.1244 14.121 11.9744 15.9836 8.00405L13.1936 5.72378L14.9565 1.60816L18.7736 2.48962Z" fill="#1890FF"/>
</svg>
