<svg width="24" height="22" viewBox="0 0 24 22" fill="none" xmlns="http://www.w3.org/2000/svg">
<path fill-rule="evenodd" clip-rule="evenodd" d="M21.3333 6.66667H17.3333V2.66667C17.3333 1.19583 16.1375 0 14.6667 0H2.66667C1.19583 0 0 1.19583 0 2.66667V9.33333C0 10.8042 1.19583 12 2.66667 12H4V14.1667C4 14.4625 4.24167 14.6667 4.5 14.6667C4.6 14.6667 4.70417 14.6375 4.79583 14.5667L8 12.7542V16C8 17.4708 9.19583 18.6667 10.6667 18.6667H14.6667L19.2042 21.2333C19.2958 21.3 19.4 21.3333 19.5 21.3333C19.7583 21.3333 20 21.1292 20 20.8333V18.6667H21.3333C22.8042 18.6667 24 17.4708 24 16V9.33333C24 7.8625 22.8042 6.66667 21.3333 6.66667ZM2.66667 10.6667C1.93333 10.6667 1.33333 10.0667 1.33333 9.33333V2.66667C1.33333 1.93333 1.93333 1.33333 2.66667 1.33333H14.6667C15.4 1.33333 16 1.93333 16 2.66667V9.33333C16 10.0667 15.4 10.6667 14.6667 10.6667H8.98333L8.67917 10.8417L5.33333 12.7333V10.6667H2.66667ZM21.3333 17.3333C22.0667 17.3333 22.6667 16.7333 22.6667 16V9.33333C22.6667 8.6 22.0667 8 21.3333 8H17.3333V9.33333C17.3333 10.8042 16.1375 12 14.6667 12H9.33333V16C9.33333 16.7333 9.93333 17.3333 10.6667 17.3333H15.0208L15.325 17.5083L18.6667 19.4V17.3333H21.3333Z" fill="#1890FF"/>
</svg>
