<svg width="25" height="24" viewBox="0 0 25 24" fill="none" xmlns="http://www.w3.org/2000/svg">
<path d="M19.6258 1.5H4.52901C4.11149 1.5 3.77417 1.83516 3.77417 2.25V21.75C3.77417 22.1648 4.11149 22.5 4.52901 22.5H19.6258C20.0433 22.5 20.3806 22.1648 20.3806 21.75V2.25C20.3806 1.83516 20.0433 1.5 19.6258 1.5ZM5.47256 3.1875H18.6822V8.0625H5.47256V3.1875ZM18.6822 14.4375H5.47256V9.5625H18.6822V14.4375ZM18.6822 20.8125H5.47256V15.9375H18.6822V20.8125ZM7.17094 5.625C7.17094 5.87364 7.27035 6.1121 7.4473 6.28791C7.62425 6.46373 7.86425 6.5625 8.11449 6.5625C8.36474 6.5625 8.60473 6.46373 8.78168 6.28791C8.95863 6.1121 9.05804 5.87364 9.05804 5.625C9.05804 5.37636 8.95863 5.1379 8.78168 4.96209C8.60473 4.78627 8.36474 4.6875 8.11449 4.6875C7.86425 4.6875 7.62425 4.78627 7.4473 4.96209C7.27035 5.1379 7.17094 5.37636 7.17094 5.625ZM7.17094 12C7.17094 12.2486 7.27035 12.4871 7.4473 12.6629C7.62425 12.8387 7.86425 12.9375 8.11449 12.9375C8.36474 12.9375 8.60473 12.8387 8.78168 12.6629C8.95863 12.4871 9.05804 12.2486 9.05804 12C9.05804 11.7514 8.95863 11.5129 8.78168 11.3371C8.60473 11.1613 8.36474 11.0625 8.11449 11.0625C7.86425 11.0625 7.62425 11.1613 7.4473 11.3371C7.27035 11.5129 7.17094 11.7514 7.17094 12ZM7.17094 18.375C7.17094 18.6236 7.27035 18.8621 7.4473 19.0379C7.62425 19.2137 7.86425 19.3125 8.11449 19.3125C8.36474 19.3125 8.60473 19.2137 8.78168 19.0379C8.95863 18.8621 9.05804 18.6236 9.05804 18.375C9.05804 18.1264 8.95863 17.8879 8.78168 17.7121C8.60473 17.5363 8.36474 17.4375 8.11449 17.4375C7.86425 17.4375 7.62425 17.5363 7.4473 17.7121C7.27035 17.8879 7.17094 18.1264 7.17094 18.375Z" fill="#1890FF"/>
</svg>
