<svg width="21" height="21" viewBox="0 0 21 21" fill="none" xmlns="http://www.w3.org/2000/svg">
<path fill-rule="evenodd" clip-rule="evenodd" d="M10.5 20C15.7467 20 20 15.7467 20 10.5C20 5.25329 15.7467 1 10.5 1C5.25329 1 1 5.25329 1 10.5C1 15.7467 5.25329 20 10.5 20Z" stroke="#1890FF" stroke-width="1.5"/>
<path fill-rule="evenodd" clip-rule="evenodd" d="M7.67674 13.0297C7.60956 12.9626 7.57597 12.8786 7.57597 12.7778C7.57597 12.6771 7.60956 12.5931 7.67674 12.5259L9.52069 10.682L7.72712 8.8884C7.65323 8.81451 7.6146 8.72886 7.61124 8.63146C7.60788 8.53405 7.64315 8.4484 7.71704 8.37451L8.45261 7.63894C8.5265 7.56505 8.61383 7.5281 8.71459 7.5281C8.81536 7.5281 8.90268 7.56505 8.97658 7.63894L10.7702 9.43252L12.5537 7.64902C12.6275 7.57513 12.7132 7.53986 12.8106 7.54322C12.908 7.54658 12.9903 7.58184 13.0575 7.64902L13.8837 8.47527C13.9576 8.54917 13.9946 8.63313 13.9946 8.72718C13.9946 8.82123 13.9576 8.90519 13.8837 8.97909L12.1002 10.7626L13.8837 12.5461C13.9576 12.62 13.9929 12.7056 13.9895 12.803C13.9862 12.9004 13.9475 12.9861 13.8736 13.06L13.1381 13.7955C13.0642 13.8694 12.9802 13.9064 12.8862 13.9064C12.7921 13.9064 12.7082 13.8694 12.6343 13.7955L10.8508 12.012L9.0068 13.856C8.93963 13.9232 8.85734 13.9584 8.75994 13.9618C8.66253 13.9652 8.57688 13.9299 8.50299 13.856L7.67674 13.0297Z" fill="#1890FF"/>
</svg>
