<svg width="24" height="24" viewBox="0 0 24 24" fill="none" xmlns="http://www.w3.org/2000/svg">
<path d="M19.5138 4.48674C17.531 2.50393 14.3224 2.50393 12.3419 4.48674L10.0708 6.75784L11.2661 7.95315L13.5372 5.68206C14.7981 4.42112 16.9263 4.28752 18.3185 5.68206C19.713 7.07659 19.5794 9.20237 18.3185 10.4633L16.0474 12.7344L17.245 13.9321L19.5161 11.661C21.4942 9.67815 21.4942 6.46956 19.5138 4.48674ZM10.4646 18.3196C9.20361 19.5805 7.07549 19.7141 5.6833 18.3196C4.28877 16.925 4.42236 14.7992 5.6833 13.5383L7.95439 11.2672L6.75674 10.0696L4.48564 12.3407C2.50283 14.3235 2.50283 17.5321 4.48564 19.5125C6.46846 21.493 9.67705 21.4953 11.6575 19.5125L13.9286 17.2414L12.7333 16.0461L10.4646 18.3196ZM6.10049 4.90862C6.06525 4.87372 6.01766 4.85415 5.96807 4.85415C5.91847 4.85415 5.87088 4.87372 5.83564 4.90862L4.90752 5.83674C4.87263 5.87198 4.85305 5.91957 4.85305 5.96917C4.85305 6.01876 4.87263 6.06635 4.90752 6.10159L17.9013 19.0953C17.9739 19.168 18.0935 19.168 18.1661 19.0953L19.0942 18.1672C19.1669 18.0946 19.1669 17.975 19.0942 17.9024L6.10049 4.90862Z" fill="#1890FF"/>
</svg>
