<svg width="12" height="24" viewBox="0 0 12 24" fill="none" xmlns="http://www.w3.org/2000/svg">
<path d="M8.99525 12.1547L3.45466 10.4156C2.30623 10.0547 1.49999 8.85938 1.49999 7.51406C1.49999 5.85 2.69998 4.5 4.17184 4.5H7.6312C8.67181 4.5 9.66087 4.90312 10.4484 5.64844C10.5937 5.78438 10.814 5.79844 10.964 5.6625L11.5218 5.15625C11.6812 5.01094 11.6905 4.7625 11.5405 4.6125C10.4718 3.58125 9.07025 2.99531 7.63588 2.99531H6.74995V0.375C6.74995 0.16875 6.5812 0 6.37495 0H5.62496C5.41871 0 5.24996 0.16875 5.24996 0.375V3H4.17184C1.8703 3 0 5.025 0 7.51406C0 9.51094 1.23749 11.2922 3.00467 11.8453L8.54525 13.5844C9.69837 13.9453 10.4999 15.1406 10.4999 16.4859C10.4999 18.1453 9.29993 19.5 7.82807 19.5H4.36872C3.3281 19.5 2.33905 19.0969 1.55155 18.3516C1.40624 18.2156 1.18593 18.2016 1.03593 18.3375L0.482809 18.8438C0.328123 18.9844 0.31406 19.2375 0.468747 19.3828C1.53749 20.4141 2.93904 21 4.37341 21H5.24996V23.625C5.24996 23.8312 5.41871 24 5.62496 24H6.37495C6.5812 24 6.74995 23.8312 6.74995 23.625V21H7.82807C10.1296 21 11.9999 18.975 11.9999 16.4859C11.9999 14.4938 10.7624 12.7125 8.99525 12.1547Z" fill="#1890FF"/>
</svg>
