<svg width="16" height="16" viewBox="0 0 16 16" fill="none" xmlns="http://www.w3.org/2000/svg">
<path fill-rule="evenodd" clip-rule="evenodd" d="M1.73689 15.7797L9.14343 8.53111C9.43894 8.23742 9.43894 7.76252 9.14972 7.46883L1.74318 0.220269C1.44767 -0.0734229 0.96983 -0.0734229 0.674322 0.220269L0.227918 0.66393C-0.0675894 0.957622 -0.0675894 1.43253 0.227918 1.72622L6.65363 7.99997L0.22163 14.2737C-0.0738768 14.5674 -0.0738768 15.0423 0.22163 15.336L0.668035 15.7797C0.963542 16.0734 1.44138 16.0734 1.73689 15.7797ZM8.37112 15.7797L15.7777 8.53111C16.0732 8.23742 16.0732 7.76252 15.7839 7.46883L8.3774 0.220269C8.0819 -0.0734229 7.60406 -0.0734229 7.30855 0.220269L6.86215 0.66393C6.56664 0.957622 6.56664 1.43253 6.86215 1.72622L13.2879 7.99997L6.85586 14.2737C6.56035 14.5674 6.56035 15.0423 6.85586 15.336L7.30226 15.7797C7.59777 16.0734 8.07561 16.0734 8.37112 15.7797Z" fill="#1890FF"/>
</svg>
