<svg width="25" height="20" viewBox="0 0 25 20" fill="none" xmlns="http://www.w3.org/2000/svg">
<path fill-rule="evenodd" clip-rule="evenodd" d="M17.4998 16.25C17.1656 16.2498 16.8454 16.1161 16.6103 15.8786L5.48191 4.64859C5.17449 4.35006 5.00067 3.94002 4.99989 3.5115C4.99804 3.08106 5.16753 2.66758 5.47098 2.36229L7.3608 0.47168C7.66232 0.169694 8.07155 0 8.49829 0C8.92504 0 9.33426 0.169694 9.63578 0.47168L20.8787 11.611C21.1162 11.8459 21.2498 12.1661 21.2497 12.5001V15.0001C21.2497 15.6904 20.6901 16.25 19.9998 16.25H17.4998ZM19.9995 12.5001L11.3067 3.9064L8.9099 6.30482L17.4995 15.0001H19.9995V12.5001ZM6.35492 3.24585L8.24516 1.35524C8.31275 1.28781 8.40437 1.25 8.49985 1.25016C8.59456 1.24982 8.6854 1.2877 8.7518 1.35524L10.4913 3.09507L8.09438 5.4927L6.35492 3.75287C6.21494 3.61285 6.21494 3.38587 6.35492 3.24585ZM5.31237 16.2501C5.13978 16.2501 4.99987 16.1102 4.99987 15.9376V15.3126C4.99987 15.14 5.13978 15.0001 5.31237 15.0001H13.9803L15.219 16.2501H5.31237ZM5.31238 12.5001H11.5035L10.2648 11.2501H5.31238C5.13978 11.2501 4.99987 11.39 4.99987 11.5626V12.1876C4.99987 12.3602 5.13978 12.5001 5.31238 12.5001ZM15.9823 5.00016H23.7498C24.4401 5.00016 24.9997 5.5598 24.9997 6.25015V18.75C24.9997 19.4404 24.4401 20 23.7498 20H1.24999C0.559638 20 0 19.4404 0 18.75V6.25015C0 5.5598 0.559638 5.00016 1.24999 5.00016H4.18472C4.30391 5.19732 4.44648 5.37937 4.60933 5.54234L5.31245 6.25015H1.24999V18.75H23.7498V6.25015H17.244L15.9823 5.00016Z" fill="#1890FF"/>
</svg>
