<svg width="24" height="16" viewBox="0 0 24 16" fill="none" xmlns="http://www.w3.org/2000/svg">
<path fill-rule="evenodd" clip-rule="evenodd" d="M12 0C17.1221 0 21.5954 2.98292 23.855 7.39167C24.0483 7.77404 24.0483 8.22554 23.855 8.60792C21.5966 13.015 17.1221 16 12 16C6.87789 16 2.40456 13.0171 0.144977 8.60833C-0.0483257 8.22596 -0.0483257 7.77446 0.144977 7.39208C2.40331 2.985 6.87789 0 12 0ZM14.6667 6.66666C14.6667 8.13941 13.4728 9.33331 12 9.33331C10.5273 9.33331 9.33335 8.13941 9.33335 6.66666C9.33335 6.64661 9.33632 6.62748 9.33932 6.60821L9.33932 6.60819V6.60819C9.34237 6.58862 9.34543 6.5689 9.34543 6.54791C10.0679 6.81025 10.8769 6.63057 11.4204 6.08707C11.9639 5.54357 12.1436 4.73455 11.8813 4.01208C11.8991 4.01116 11.9162 4.00871 11.9333 4.00624C11.955 4.00312 11.9767 4 12 4C13.4728 4 14.6667 5.1939 14.6667 6.66666ZM12 1.33331C14.9455 1.33331 17.3333 3.72113 17.3333 6.66666C17.3333 9.61218 14.9455 12 12 12C9.05444 12 6.66663 9.61218 6.66663 6.66666C6.66984 3.72247 9.05577 1.33653 12 1.33331ZM1.3333 8.00002C3.43913 12.1121 7.52663 14.6667 12 14.6667C16.4733 14.6667 20.5612 12.1121 22.6666 8.00002C21.4823 5.67498 19.5883 3.78753 17.2591 2.61127C18.1287 3.7371 18.6666 5.1321 18.6666 6.66668C18.6666 10.3486 15.6819 13.3334 12 13.3334C8.31807 13.3334 5.3333 10.3486 5.3333 6.66668C5.3333 5.1321 5.87122 3.7371 6.7408 2.61127C4.41166 3.78753 2.51765 5.67498 1.3333 8.00002Z" fill="#1890FF"/>
</svg>
