<svg width="25" height="24" viewBox="0 0 25 24" fill="none" xmlns="http://www.w3.org/2000/svg">
<path d="M20.1589 6.76406L15.0826 1.72031C14.9411 1.57969 14.75 1.5 14.5495 1.5H4.52901C4.11149 1.5 3.77417 1.83516 3.77417 2.25V21.75C3.77417 22.1648 4.11149 22.5 4.52901 22.5H19.6258C20.0433 22.5 20.3806 22.1648 20.3806 21.75V7.29609C20.3806 7.09687 20.3004 6.90469 20.1589 6.76406ZM18.6398 7.64062H14.2004V3.22969L18.6398 7.64062ZM18.6822 20.8125H5.47256V3.1875H12.5963V8.25C12.5963 8.51107 12.7007 8.76145 12.8865 8.94606C13.0723 9.13066 13.3243 9.23438 13.5871 9.23438H18.6822V20.8125ZM11.8887 14.4844H7.54836C7.44457 14.4844 7.35965 14.5688 7.35965 14.6719V15.7969C7.35965 15.9 7.44457 15.9844 7.54836 15.9844H11.8887C11.9925 15.9844 12.0774 15.9 12.0774 15.7969V14.6719C12.0774 14.5688 11.9925 14.4844 11.8887 14.4844ZM7.35965 11.4844V12.6094C7.35965 12.7125 7.44457 12.7969 7.54836 12.7969H16.6064C16.7102 12.7969 16.7951 12.7125 16.7951 12.6094V11.4844C16.7951 11.3813 16.7102 11.2969 16.6064 11.2969H7.54836C7.44457 11.2969 7.35965 11.3813 7.35965 11.4844Z" fill="#1890FF"/>
</svg>
