<svg width="25" height="24" viewBox="0 0 25 24" fill="none" xmlns="http://www.w3.org/2000/svg">
<path d="M20.1589 6.76406L15.0826 1.72031C14.9411 1.57969 14.75 1.5 14.5495 1.5H4.52901C4.11149 1.5 3.77417 1.83516 3.77417 2.25V21.75C3.77417 22.1648 4.11149 22.5 4.52901 22.5H19.6258C20.0433 22.5 20.3806 22.1648 20.3806 21.75V7.29609C20.3806 7.09687 20.3004 6.90469 20.1589 6.76406ZM18.6398 7.64062H14.2004V3.22969L18.6398 7.64062ZM18.6822 20.8125H5.47256V3.1875H12.5963V8.25C12.5963 8.51107 12.7007 8.76145 12.8865 8.94606C13.0723 9.13066 13.3243 9.23438 13.5871 9.23438H18.6822V20.8125Z" fill="#1890FF"/>
<path d="M13.3968 15.0483L11.6542 14.5049C11.293 14.3921 11.0394 14.0186 11.0394 13.5981C11.0394 13.0781 11.4168 12.6562 11.8797 12.6562H12.9678C13.2951 12.6562 13.6061 12.7822 13.8538 13.0151C13.8995 13.0576 13.9688 13.062 14.016 13.0195L14.1914 12.8613C14.2416 12.8159 14.2445 12.7383 14.1973 12.6914C13.8612 12.3691 13.4204 12.186 12.9693 12.186H12.6906V11.3672C12.6906 11.3027 12.6375 11.25 12.5727 11.25H12.3368C12.2719 11.25 12.2188 11.3027 12.2188 11.3672V12.1875H11.8797C11.1559 12.1875 10.5676 12.8203 10.5676 13.5981C10.5676 14.2222 10.9568 14.7788 11.5126 14.9517L13.2553 15.4951C13.6179 15.6079 13.87 15.9814 13.87 16.4019C13.87 16.9204 13.4926 17.3438 13.0297 17.3438H11.9417C11.6144 17.3438 11.3033 17.2178 11.0556 16.9849C11.0099 16.9424 10.9406 16.938 10.8934 16.9805L10.7195 17.1387C10.6708 17.1826 10.6664 17.2617 10.7151 17.3071C11.0512 17.6294 11.492 17.8125 11.9431 17.8125H12.2188V18.6328C12.2188 18.6973 12.2719 18.75 12.3368 18.75H12.5727C12.6375 18.75 12.6906 18.6973 12.6906 18.6328V17.8125H13.0297C13.7536 17.8125 14.3418 17.1797 14.3418 16.4019C14.3418 15.7793 13.9526 15.2227 13.3968 15.0483Z" fill="#1890FF" stroke="#1890FF"/>
</svg>
