<?xml version="1.0" encoding="utf-8"?>
<svg version="1.1" id="Слой_1" xmlns="http://www.w3.org/2000/svg" xmlns:xlink="http://www.w3.org/1999/xlink" x="0px" y="0px"
	 viewBox="0 0 24 24" style="enable-background:new 0 0 24 24;" xml:space="preserve"
	 width="24px" height="24px"
>
<style type="text/css">
	.st0{fill:#1890FF;}
</style>
<path class="st0" d="M18.56,20.81H5.44V3.19h7.08v5.06c0,0.26,0.1,0.51,0.29,0.7c0.18,0.18,0.43,0.29,0.7,0.29h5.06V20.81z
	 M18.52,7.64h-4.41V3.23L18.52,7.64z M20.03,6.76l-5.04-5.04c-0.14-0.14-0.33-0.22-0.53-0.22H4.5c-0.41,0-0.75,0.34-0.75,0.75v19.5
	c0,0.41,0.34,0.75,0.75,0.75h15c0.41,0,0.75-0.34,0.75-0.75V7.3C20.25,7.1,20.17,6.9,20.03,6.76z"/>
<path class="st0" d="M13.68,13.42c0,0.06-0.04,0.1-0.1,0.1v0.4c0.28,0,0.5-0.22,0.5-0.5H13.68z M13.58,13.32
	c0.06,0,0.1,0.04,0.1,0.1h0.4c0-0.28-0.22-0.5-0.5-0.5V13.32z M13.48,13.42c0-0.06,0.04-0.1,0.1-0.1v-0.4c-0.28,0-0.5,0.22-0.5,0.5
	H13.48z M13.58,13.52c-0.06,0-0.1-0.04-0.1-0.1h-0.4c0,0.28,0.22,0.5,0.5,0.5V13.52z M14.6,13.42c0-0.57-0.46-1.03-1.03-1.03v0.4
	c0.34,0,0.63,0.28,0.63,0.63H14.6z M13.58,14.45c0.57,0,1.03-0.46,1.03-1.03h-0.4c0,0.34-0.28,0.63-0.63,0.63V14.45z M12.55,13.42
	c0,0.57,0.46,1.03,1.03,1.03v-0.4c-0.34,0-0.63-0.28-0.63-0.63H12.55z M13.58,12.4c-0.57,0-1.03,0.46-1.03,1.03h0.4
	c0-0.34,0.28-0.63,0.63-0.63V12.4z M15.12,14.14l-3.75,3.75l0.28,0.28l3.75-3.75L15.12,14.14z M14.84,11.98l0.22,2.32l0.4-0.04
	l-0.22-2.32L14.84,11.98z M12.7,11.94l2.32,0.22l0.04-0.4l-2.32-0.22L12.7,11.94z M9.11,15.63l3.75-3.75l-0.28-0.28l-3.75,3.75
	L9.11,15.63z M11.65,17.89l-2.54-2.54l-0.28,0.28l2.54,2.54L11.65,17.89z M16.12,14.71c0.06-0.06,0.09-0.15,0.08-0.23l-0.4,0.03
	c0-0.02,0.01-0.05,0.03-0.08L16.12,14.71z M11.72,19.11l4.4-4.4l-0.28-0.28l-4.4,4.4L11.72,19.11z M11.51,19.2
	c0.08,0,0.15-0.03,0.21-0.09l-0.28-0.28c0.02-0.02,0.05-0.03,0.07-0.03V19.2z M11.3,19.11c0.06,0.06,0.13,0.09,0.21,0.09v-0.4
	c0.03,0,0.05,0.01,0.07,0.03L11.3,19.11z M7.89,15.7l3.42,3.42l0.28-0.28l-3.42-3.42L7.89,15.7z M7.82,15.6
	c0.01,0.04,0.04,0.07,0.06,0.1l0.28-0.28c0.01,0.01,0.02,0.02,0.02,0.03L7.82,15.6z M7.8,15.49c0,0.04,0.01,0.08,0.02,0.11
	l0.37-0.15c0.01,0.01,0.01,0.03,0.01,0.04H7.8z M7.82,15.38c-0.01,0.04-0.02,0.07-0.02,0.11h0.4c0,0.01,0,0.03-0.01,0.04L7.82,15.38
	z M7.89,15.28c-0.03,0.03-0.05,0.06-0.06,0.1l0.37,0.15c-0.01,0.01-0.01,0.02-0.02,0.03L7.89,15.28z M12.28,10.89l-4.4,4.4
	l0.28,0.28l4.4-4.4L12.28,10.89z M12.5,10.8c-0.08,0-0.15,0.03-0.21,0.09l0.28,0.28c-0.01,0.01-0.02,0.02-0.04,0.02
	c-0.01,0.01-0.03,0.01-0.03,0.01V10.8z M12.5,10.8L12.5,10.8l0,0.4h0V10.8z M15.45,11.08l-2.94-0.28l-0.04,0.4l2.94,0.28
	L15.45,11.08z M15.92,11.55c-0.02-0.25-0.22-0.44-0.47-0.47l-0.04,0.4c0.06,0.01,0.1,0.05,0.11,0.11L15.92,11.55z M16.2,14.48
	l-0.28-2.94l-0.4,0.04l0.28,2.94L16.2,14.48z M15.26,14.28l0.14,0.14l0.07-0.07l-0.01-0.09L15.26,14.28z M15.04,11.96l0.2-0.02
	l-0.02-0.16l-0.16-0.02L15.04,11.96z M12.72,11.74l0.02-0.2l-0.09-0.01l-0.07,0.07L12.72,11.74z M8.97,15.49l-0.14-0.14l-0.14,0.14
	l0.14,0.14L8.97,15.49z M11.51,18.03l-0.14,0.14l0.14,0.14l0.14-0.14L11.51,18.03z M15.97,14.58l0.14,0.14l0,0L15.97,14.58z
	 M11.58,18.97l0.14,0.14L11.58,18.97z M11.44,18.97l0.14-0.14L11.44,18.97z M8.03,15.56l0.14-0.14l0,0L8.03,15.56z M8.03,15.42
	l0.14,0.14l0,0L8.03,15.42z M12.42,11.03l0.14,0.14L12.42,11.03z M12.5,11l0.02-0.2l-0.01,0H12.5V11z M15.43,11.28l0.02-0.2l0,0
	L15.43,11.28z M15.72,11.57l-0.2,0.02l0,0L15.72,11.57z"/>
<path class="st0" d="M13.58,13.72c-0.17,0-0.3-0.13-0.3-0.3s0.13-0.3,0.3-0.3c0.17,0,0.3,0.13,0.3,0.3S13.74,13.72,13.58,13.72z
	 M13.58,12.6c-0.46,0-0.83,0.37-0.83,0.83c0,0.46,0.37,0.83,0.83,0.83c0.46,0,0.83-0.37,0.83-0.83C14.4,12.97,14.03,12.6,13.58,12.6
	z M11.51,18.03l-2.54-2.54l3.75-3.75l2.32,0.22l0.22,2.32L11.51,18.03z M16,14.5l-0.28-2.94c-0.01-0.15-0.14-0.27-0.29-0.29L12.5,11
	h0c-0.03,0-0.05,0.01-0.07,0.03l-4.4,4.4c-0.01,0.01-0.02,0.02-0.02,0.03C8,15.47,8,15.48,8,15.49c0,0.01,0,0.02,0.01,0.04
	c0,0.01,0.01,0.02,0.02,0.03l3.42,3.42c0.02,0.02,0.04,0.03,0.07,0.03s0.05-0.01,0.07-0.03l4.4-4.4C15.99,14.56,16,14.53,16,14.5z"
	/>
</svg>
