<svg width="23" height="24" viewBox="0 0 23 24" fill="none" xmlns="http://www.w3.org/2000/svg">
<path fill-rule="evenodd" clip-rule="evenodd" d="M20.4632 13.6935L22.5088 14.8839C22.7441 15.0193 22.8497 15.3 22.7777 15.5661C22.2447 17.2935 21.3371 18.8516 20.1511 20.1435C19.9686 20.3467 19.6757 20.3903 19.4404 20.2548L17.3949 19.0645C16.5305 19.8048 15.5414 20.3806 14.4754 20.7629V23.1435C14.4754 23.4145 14.2881 23.6516 14.024 23.7096C12.3482 24.0871 10.5427 24.1064 8.78041 23.7096C8.51631 23.6516 8.32904 23.4145 8.32904 23.1435V20.7629C7.25823 20.3855 6.26906 19.8096 5.40953 19.0645L3.36396 20.2548C3.13348 20.3903 2.83576 20.3419 2.65329 20.1435C1.46725 18.8467 0.559705 17.2887 0.0267038 15.5661C-0.0501252 15.3048 0.0555147 15.0242 0.290803 14.8887L2.33637 13.6984C2.1299 12.5758 2.1299 11.4242 2.33637 10.3016L0.290803 9.1113C0.0555147 8.97582 -0.054927 8.69517 0.0267038 8.43388C0.559705 6.70647 1.46725 5.14841 2.65329 3.85648C2.83576 3.65326 3.12867 3.60971 3.36396 3.74519L5.40473 4.93551C6.26906 4.19519 7.25823 3.61939 8.32423 3.23713V0.856494C8.32423 0.585527 8.5115 0.348431 8.7756 0.290367C10.4514 -0.0870511 12.2569 -0.106406 14.0192 0.290367C14.2833 0.348431 14.4706 0.585527 14.4706 0.856494V3.23229C15.5414 3.60971 16.5305 4.18551 17.3901 4.93067L19.4356 3.74035C19.6661 3.60487 19.9638 3.65326 20.1463 3.85164C21.3323 5.14841 22.2399 6.70647 22.7729 8.42905C22.8497 8.69034 22.7441 8.97098 22.5088 9.10646L20.4632 10.2968C20.6697 11.4194 20.6697 12.571 20.4632 13.6935ZM7.55595 11.9952C7.55595 14.1291 9.2798 15.8661 11.3974 15.8661C13.515 15.8661 15.2389 14.1291 15.2389 11.9952C15.2389 9.86135 13.515 8.12427 11.3974 8.12427C9.2798 8.12427 7.55595 9.86135 7.55595 11.9952Z" fill="#1890FF"/>
</svg>
