<svg width="22" height="22" viewBox="0 0 22 22" fill="none" xmlns="http://www.w3.org/2000/svg">
<path fill-rule="evenodd" clip-rule="evenodd" d="M0.975806 0.709688H0.532258C0.238318 0.709688 0 0.948006 0 1.24195V7.62904C0 7.92298 0.238318 8.1613 0.532258 8.1613H6.91935C7.21329 8.1613 7.45161 7.92298 7.45161 7.62904V7.18549C7.45161 6.89155 7.21329 6.65323 6.91935 6.65323H2.55976C4.13666 3.59617 7.32466 1.50807 11 1.50807C16.2635 1.50807 20.4919 5.77749 20.4919 11C20.4919 16.2635 16.2225 20.4919 11 20.4919C8.5576 20.4919 6.33307 19.571 4.65242 18.0585C4.44249 17.8695 4.12109 17.8789 3.92136 18.0786L3.60782 18.3921C3.39172 18.6082 3.40241 18.9605 3.6292 19.1654C5.57975 20.9272 8.16457 22 11 22C17.0692 22 21.9905 17.0846 22 11.0176C22.0094 4.96815 17.0846 0.0189944 11.0352 5.48666e-05C6.97431 -0.0126306 3.42401 2.17548 1.50806 5.43902V1.24195C1.50806 0.948006 1.26975 0.709688 0.975806 0.709688ZM15.0076 14.4049L14.7989 14.6919C14.626 14.9296 14.2931 14.9822 14.0554 14.8092L10.2904 12.071V4.79034C10.2904 4.4964 10.5287 4.25808 10.8226 4.25808H11.1774C11.4714 4.25808 11.7097 4.4964 11.7097 4.79034V11.3483L14.8902 13.6614C15.128 13.8343 15.1805 14.1671 15.0076 14.4049Z" fill="#1890FF"/>
</svg>
