<svg width="24" height="22" viewBox="0 0 24 22" fill="none" xmlns="http://www.w3.org/2000/svg">
<path fill-rule="evenodd" clip-rule="evenodd" d="M12.9436 0.339426L23.8598 9.3877C23.9375 9.45112 23.9872 9.54338 23.9979 9.64409C24.0085 9.7448 23.9792 9.84567 23.9165 9.92441L23.443 10.5154C23.3123 10.6785 23.0763 10.7033 22.9156 10.5706L21.0001 8.98101V20.5557C21.0001 20.9765 20.6642 21.3176 20.25 21.3176L14.2492 21.3333C13.835 21.3333 13.4991 20.9922 13.4991 20.5714V14.4719L10.4988 14.4576V20.5533C10.4988 20.9741 10.1629 21.3152 9.74868 21.3152H3.74794C3.33368 21.3152 2.99785 20.9741 2.99785 20.5533V8.98101L1.0823 10.5706C0.921625 10.7013 0.687302 10.676 0.55724 10.514L0.0837444 9.92298C-0.0464834 9.75983 -0.0221577 9.5204 0.138126 9.3877L11.0506 0.339426C11.6029 -0.113142 12.3912 -0.113142 12.9436 0.339426ZM14.9989 19.8118L19.4947 19.7975L19.4999 7.7376L11.999 1.51953L4.49805 7.7376V19.7975H8.99813V13.6952C8.99813 13.4927 9.07748 13.2985 9.21866 13.1555C9.35983 13.0126 9.55122 12.9326 9.75057 12.9332L14.2511 12.9461C14.6639 12.9487 14.9976 13.2887 14.9989 13.708V19.8118Z" fill="#1890FF"/>
</svg>
