<svg width="24" height="20" viewBox="0 0 24 20" fill="none" xmlns="http://www.w3.org/2000/svg">
<path fill-rule="evenodd" clip-rule="evenodd" d="M12 13.1366V4.79998H10.2V1.2H2.99999V4.79998H1.2V18.8999C1.2 19.0656 1.06568 19.1999 0.899996 19.1999H0.299999C0.134314 19.1999 0 19.0656 0 18.8999V4.79998C0 4.13724 0.537256 3.59999 1.2 3.59999H1.79999V1.2C1.79999 0.537256 2.33725 0 2.99999 0H10.2C10.8627 0 11.4 0.537256 11.4 1.2V3.59999H12C12.6627 3.59999 13.1999 4.13724 13.1999 4.79998V12.1991C12.7494 12.4408 12.3435 12.7579 12 13.1366ZM7.19997 4.79998H8.17497C8.29923 4.79998 8.39997 4.69924 8.39997 4.57498V3.82498C8.39997 3.70072 8.29923 3.59999 8.17497 3.59999H7.19997V2.62499C7.19997 2.50073 7.09924 2.39999 6.97497 2.39999H6.22497C6.10071 2.39999 5.99998 2.50073 5.99998 2.62499V3.59999H5.02498C4.90072 3.59999 4.79998 3.70072 4.79998 3.82498V4.57498C4.79998 4.69924 4.90072 4.79998 5.02498 4.79998H5.99998V5.77498C5.99998 5.89924 6.10071 5.99998 6.22497 5.99998H6.97497C7.09924 5.99998 7.19997 5.89924 7.19997 5.77498V4.79998ZM5.54998 7.19997C5.7985 7.19997 5.99998 7.40144 5.99998 7.64997V9.14996C5.99998 9.39849 5.7985 9.59996 5.54998 9.59996H4.04998C3.80146 9.59996 3.59999 9.39849 3.59999 9.14996V7.64997C3.59999 7.40144 3.80146 7.19997 4.04998 7.19997H5.54998ZM5.54998 10.8C5.7985 10.8 5.99998 11.0014 5.99998 11.25V12.75C5.99998 12.9985 5.7985 13.1999 5.54998 13.1999H4.04998C3.80146 13.1999 3.59999 12.9985 3.59999 12.75V11.25C3.59999 11.0014 3.80146 10.8 4.04998 10.8H5.54998ZM4.04998 14.3999C3.80146 14.3999 3.59999 14.6014 3.59999 14.8499V16.3499C3.59999 16.5985 3.80146 16.7999 4.04998 16.7999H5.54998C5.7985 16.7999 5.99998 16.5985 5.99998 16.3499V14.8499C5.99998 14.6014 5.7985 14.3999 5.54998 14.3999H4.04998ZM9.14996 10.8C9.39849 10.8 9.59996 11.0014 9.59996 11.25V12.75C9.59996 12.9985 9.39849 13.1999 9.14996 13.1999H7.64997C7.40144 13.1999 7.19997 12.9985 7.19997 12.75V11.25C7.19997 11.0014 7.40144 10.8 7.64997 10.8H9.14996ZM7.64997 7.19997C7.40144 7.19997 7.19997 7.40144 7.19997 7.64997V9.14996C7.19997 9.39849 7.40144 9.59996 7.64997 9.59996H9.14996C9.39849 9.59996 9.59996 9.39849 9.59996 9.14996V7.64997C9.59996 7.40144 9.39849 7.19997 9.14996 7.19997H7.64997ZM9.14996 14.3999C9.39849 14.3999 9.59996 14.6014 9.59996 14.8499V16.3499C9.59996 16.5985 9.39849 16.7999 9.14996 16.7999H7.64997C7.40144 16.7999 7.19997 16.5985 7.19997 16.3499V14.8499C7.19997 14.6014 7.40144 14.3999 7.64997 14.3999H9.14996ZM21.5999 8.39997C21.5999 10.3882 19.9881 12 17.9999 12C16.0117 12 14.3999 10.3882 14.3999 8.39997C14.3999 6.41175 16.0117 4.79998 17.9999 4.79998C19.9881 4.79998 21.5999 6.41175 21.5999 8.39997ZM17.9999 5.99998C19.3254 5.99998 20.3999 7.07449 20.3999 8.39997C20.3999 9.72544 19.3254 10.8 17.9999 10.8C16.6744 10.8 15.5999 9.72544 15.5999 8.39997C15.6014 7.07509 16.675 6.00142 17.9999 5.99998ZM20.5046 12.8249C21.6375 12.8249 22.7415 13.3312 23.3884 14.2923C23.7882 14.8855 24.0012 15.5847 24 16.3001V17.6999C24 18.5283 23.3284 19.1999 22.5 19.1999H13.5C12.6715 19.1999 12 18.5283 12 17.6999V16.3001C11.9986 15.5845 12.2116 14.8849 12.6116 14.2916C13.2585 13.3304 14.3617 12.8249 15.4953 12.8249C15.9992 12.8249 16.3206 12.9123 16.6531 13.0027C17.0097 13.0996 17.3791 13.1999 18 13.1999C18.6211 13.1999 18.9911 13.0995 19.348 13.0025C19.6806 12.9122 20.0019 12.8249 20.5046 12.8249ZM22.8 17.6999C22.8 17.8656 22.6657 17.9999 22.5 17.9999H13.5C13.3343 17.9999 13.2 17.8656 13.2 17.6999V16.3001C13.1989 15.8236 13.3406 15.3577 13.6068 14.9624C14.0017 14.3759 14.7075 14.0249 15.4953 14.0249C15.8509 14.0249 16.11 14.0959 16.4028 14.1761C16.7832 14.2802 17.2204 14.3999 18 14.3999C18.7796 14.3999 19.217 14.2802 19.5974 14.176C19.8902 14.0959 20.1492 14.0249 20.5046 14.0249C21.2921 14.0249 21.9982 14.3752 22.3931 14.9624C22.6593 15.3577 22.801 15.8236 22.8 16.3001V17.6999Z" fill="#1890FF"/>
</svg>
