<svg width="25" height="24" viewBox="0 0 25 24" fill="none" xmlns="http://www.w3.org/2000/svg">
<path d="M20.8808 10.46L20.876 10.4412L18.2294 3.7592C18.1114 3.38186 17.76 3.1217 17.3613 3.1217H6.63318C6.23217 3.1217 5.87598 3.38655 5.76275 3.76858L3.2883 10.3826L3.28122 10.399L3.2765 10.4178C3.24584 10.5326 3.2364 10.6498 3.25291 10.7647C3.25055 10.8022 3.2482 10.8397 3.2482 10.8772V19.453C3.24882 19.8307 3.40012 20.1928 3.66895 20.4599C3.93778 20.727 4.30221 20.8773 4.68239 20.878H19.4772C20.2675 20.878 20.9114 20.2381 20.9138 19.453V10.8772C20.9138 10.8467 20.9138 10.8162 20.9114 10.7905C20.9209 10.6756 20.9114 10.5655 20.8808 10.46ZM13.9032 9.45217L13.8961 9.82014C13.8773 10.8725 13.146 11.5803 12.0774 11.5803C11.5561 11.5803 11.108 11.4139 10.7848 11.0975C10.4616 10.7811 10.2847 10.3405 10.2753 9.82014L10.2682 9.45217H5.41364L7.28894 4.9217H16.7056L18.6328 9.45217H13.9032ZM5.05745 11.2522H8.76795C9.34116 12.5905 10.5607 13.3803 12.0798 13.3803C12.8747 13.3803 13.6131 13.16 14.2099 12.7428C14.7335 12.3772 15.1416 11.8662 15.4058 11.2522H19.0975V19.078H5.05745V11.2522Z" fill="#1890FF"/>
</svg>
