<svg width="24" height="24" viewBox="0 0 24 24" fill="none" xmlns="http://www.w3.org/2000/svg">
<path fill-rule="evenodd" clip-rule="evenodd" d="M17.7882 16.5273L23.8348 22.5739C24.0551 22.7942 24.0551 23.1504 23.8348 23.3707L23.3707 23.8348C23.1504 24.0551 22.7942 24.0551 22.5739 23.8348L16.5273 17.7882C16.4242 17.6804 16.3633 17.5398 16.3633 17.3898V16.9117C14.6243 18.5147 12.3041 19.499 9.74952 19.499C4.36385 19.499 0 15.1352 0 9.74952C0 4.36385 4.36385 0 9.74952 0C15.1352 0 19.499 4.36385 19.499 9.74952C19.499 12.3041 18.5147 14.6243 16.907 16.3633H17.3898C17.5398 16.3633 17.6804 16.4195 17.7882 16.5273ZM1.49992 9.74952C1.49992 14.3102 5.1888 17.9991 9.74952 17.9991C14.3102 17.9991 17.9991 14.3102 17.9991 9.74952C17.9991 5.1888 14.3102 1.49992 9.74952 1.49992C5.1888 1.49992 1.49992 5.1888 1.49992 9.74952Z" fill="#1890FF"/>
</svg>
