<svg width="28" height="24" viewBox="0 0 28 24" fill="none" xmlns="http://www.w3.org/2000/svg">
<path fill-rule="evenodd" clip-rule="evenodd" d="M13.7178 0C6.14284 0 0.00355544 4.9875 0.00355544 11.1429C0.00355544 13.6929 1.06963 16.0286 2.83748 17.9089C2.03927 20.0196 0.378555 21.8089 0.35177 21.8304C-0.0018017 22.2054 -0.0982303 22.7518 0.105341 23.2232C0.308913 23.6946 0.774984 24 1.28927 24C4.58391 24 7.18213 22.6232 8.74106 21.5196C10.2893 22.0071 11.9607 22.2857 13.7178 22.2857C21.2928 22.2857 27.4321 17.2982 27.4321 11.1429C27.4321 4.9875 21.2928 0 13.7178 0ZM14.1733 12.8571H13.2626C13.0376 12.8571 12.8501 12.6804 12.834 12.4554L12.459 6.45536C12.443 6.20893 12.6412 6 12.8876 6H14.5483C14.7948 6 14.993 6.20893 14.9769 6.45536L14.6019 12.4554C14.5858 12.6804 14.3983 12.8571 14.1733 12.8571ZM12.4321 15.4286C12.4321 14.7161 13.0053 14.1428 13.7178 14.1428C14.4303 14.1428 15.0036 14.7161 15.0036 15.4286C15.0036 16.1411 14.4303 16.7143 13.7178 16.7143C13.0053 16.7143 12.4321 16.1411 12.4321 15.4286ZM9.26075 19.8857C10.7018 20.3411 12.2018 20.5714 13.7179 20.5714C20.334 20.5714 25.7179 16.3393 25.7179 11.1429C25.7179 5.94642 20.334 1.71428 13.7179 1.71428C7.10182 1.71428 1.7179 5.94642 1.7179 11.1429C1.7179 13.1571 2.53754 15.0911 4.08575 16.7304L4.81968 17.5125L4.43932 18.5143C3.85004 20.0786 2.89647 21.4339 2.25361 22.2429C4.61611 22.0125 6.5179 20.9946 7.75004 20.1214L8.44647 19.6286L9.26075 19.8857Z" fill="#1890FF"/>
</svg>
