<svg width="24" height="15" viewBox="0 0 24 15" fill="none" xmlns="http://www.w3.org/2000/svg">
<path fill-rule="evenodd" clip-rule="evenodd" d="M22.8 0H1.2C0.53625 0 0 0.53625 0 1.2V13.2C0 13.8637 0.53625 14.4 1.2 14.4H22.8C23.4637 14.4 24 13.8637 24 13.2V1.2C24 0.53625 23.4637 0 22.8 0ZM8.40006 7.2C8.40006 4.87875 10.0126 3 12.0001 3C13.9876 3 15.6001 4.87875 15.6001 7.2C15.6001 9.52125 13.9876 11.4 12.0001 11.4C10.0126 11.4 8.40006 9.5175 8.40006 7.2ZM9.59995 7.20001C9.59995 8.85375 10.6762 10.2 12 10.2C13.3237 10.2 14.4 8.85375 14.4 7.20001C14.4 5.54628 13.3237 4.20004 12 4.20004C10.6762 4.20004 9.59995 5.54628 9.59995 7.20001ZM3.60004 1.20004H1.20005V3.59998C2.52379 3.59998 3.60004 2.52376 3.60004 1.20004ZM1.20005 13.2V10.8C2.52379 10.8 3.60004 11.8763 3.60004 13.2H1.20005ZM20.4 13.2H22.8V10.8C21.4763 10.8 20.4 11.8763 20.4 13.2ZM22.8 9.60002C20.8163 9.60002 19.2 11.2163 19.2 13.2H4.80005C4.80005 11.2163 3.1838 9.60002 1.20005 9.60002V4.80003C3.1838 4.80003 4.80005 3.18379 4.80005 1.20004H19.2C19.2 3.18379 20.8163 4.80003 22.8 4.80003V9.60002ZM20.4 1.20004C20.4 2.52376 21.4763 3.59998 22.8 3.59998V1.20004H20.4Z" fill="#1890FF"/>
</svg>
