<svg width="18" height="17" viewBox="0 0 18 17" fill="none" xmlns="http://www.w3.org/2000/svg">
<path d="M16.9922 7.77656L8.1375 0.0914061C8.06953 0.0328124 7.98281 0 7.89141 0H5.81719C5.64375 0 5.56406 0.215625 5.69531 0.328125L13.9031 7.45312H0.1875C0.084375 7.45312 0 7.5375 0 7.64062V9.04688C0 9.15 0.084375 9.23438 0.1875 9.23438H13.9008L5.69297 16.3594C5.56172 16.4742 5.64141 16.6875 5.81484 16.6875H7.95938C8.00391 16.6875 8.04844 16.6711 8.08125 16.6406L16.9922 8.91094C17.0733 8.84038 17.1384 8.75324 17.183 8.65539C17.2275 8.55755 17.2506 8.45127 17.2506 8.34375C17.2506 8.23623 17.2275 8.12995 17.183 8.03211C17.1384 7.93426 17.0733 7.84712 16.9922 7.77656Z" fill="#1890FF"/>
</svg>
