<svg width="20" height="20" viewBox="0 0 20 20" fill="none" xmlns="http://www.w3.org/2000/svg">
<path d="M0.75 18.5714C0.75 18.5799 0.750508 18.5761 0.753071 18.5565C0.757199 18.5249 0.766658 18.4527 0.787916 18.3259C0.817476 18.1495 0.861693 17.9129 0.918784 17.6329C1.0329 17.0733 1.19566 16.354 1.38883 15.6179C1.58265 14.8793 1.80349 14.1377 2.03233 13.5277C2.14681 13.2225 2.25904 12.9618 2.36569 12.756C2.47749 12.5403 2.56159 12.4276 2.60604 12.3832L10.25 4.73923L15.2608 9.75L7.61681 17.394C7.57236 17.4384 7.45972 17.5225 7.24402 17.6343C7.03825 17.741 6.77752 17.8532 6.47234 17.9677C5.86232 18.1965 5.12069 18.4174 4.38213 18.6112C3.64604 18.8043 2.9267 18.9671 2.36707 19.0812C2.08709 19.1383 1.8505 19.1825 1.67414 19.2121C1.54731 19.2333 1.47505 19.2428 1.44352 19.2469C1.42395 19.2495 1.42007 19.25 1.42857 19.25C1.02953 19.25 0.75 18.9377 0.75 18.5714ZM18.3184 6.68633L13.3136 1.68156C14.1052 0.962674 15.0409 0.75 15.7143 0.75C17.6659 0.75 19.25 2.33295 19.25 4.28571C19.25 5.05901 18.982 5.95516 18.3184 6.68633Z" stroke="#1890FF" stroke-width="1.5"/>
</svg>
