<svg width="24" height="24" viewBox="0 0 24 24" fill="none" xmlns="http://www.w3.org/2000/svg">
<path fill-rule="evenodd" clip-rule="evenodd" d="M19.5 9H20.25C22.3209 9 24 10.6791 24 12.75V17.25C24 17.6644 23.6644 18 23.25 18H19.5V23.25C19.5 23.6644 19.1644 24 18.75 24H5.25C4.83562 24 4.5 23.6644 4.5 23.25V18H0.749999C0.335625 18 0 17.6644 0 17.25V12.75C0 10.6791 1.67906 9 3.75 9H4.5V1.5C4.5 0.671719 5.13937 0 5.92874 0H14.3784C14.7764 0 15.158 0.157969 15.4392 0.439219L19.0608 4.06031C19.342 4.34203 19.5 4.72312 19.5 5.12109V9ZM17.3793 4.49997L15.0004 2.12109V4.49997H17.3793ZM6.00578 1.5H13.5V4.5C13.5 5.32829 14.1718 6.00001 15 6.00001H18V9.00001H6.00109L6.00578 1.5ZM5.99999 22.5H18V18H5.99999V22.5ZM22.5 16.5H1.5V12.75C1.5 11.5092 2.50922 10.5 3.75 10.5H20.25C21.4908 10.5 22.5 11.5092 22.5 12.75V16.5ZM17.625 13.5C17.625 12.8784 18.1289 12.375 18.75 12.375C19.3711 12.375 19.875 12.8784 19.875 13.5C19.875 14.1211 19.3711 14.625 18.75 14.625C18.1289 14.625 17.625 14.1211 17.625 13.5Z" fill="#1890FF"/>
</svg>
