<svg width="24" height="24" viewBox="0 0 24 24" fill="none" xmlns="http://www.w3.org/2000/svg">
<path fill-rule="evenodd" clip-rule="evenodd" d="M12.0001 24C18.6276 24 24.0002 18.6274 24.0002 12C24.0002 5.37258 18.6276 0 12.0001 0C5.37262 0 0 5.37258 0 12C0 18.6274 5.37262 24 12.0001 24Z" fill="#1890FF"/>
<path d="M11.0993 14.032C11.0247 14.032 10.9593 14.0087 10.9033 13.962C10.8473 13.906 10.8193 13.8407 10.8193 13.766V13.444C10.8847 13.052 11.0293 12.702 11.2533 12.394C11.4867 12.086 11.804 11.736 12.2053 11.344C12.504 11.0453 12.728 10.8027 12.8773 10.616C13.0267 10.42 13.106 10.224 13.1153 10.028C13.1433 9.73867 13.0453 9.51 12.8213 9.342C12.6067 9.16467 12.3453 9.076 12.0373 9.076C11.3093 9.076 10.8613 9.426 10.6933 10.126C10.6187 10.35 10.474 10.462 10.2593 10.462H8.55133C8.44867 10.462 8.36467 10.4293 8.29933 10.364C8.24333 10.2893 8.21533 10.196 8.21533 10.084C8.234 9.57067 8.39733 9.08533 8.70533 8.628C9.01333 8.16133 9.466 7.78333 10.0633 7.494C10.6607 7.20467 11.3747 7.06 12.2053 7.06C13.0547 7.06 13.7453 7.19533 14.2773 7.466C14.8093 7.72733 15.1873 8.054 15.4113 8.446C15.6447 8.82867 15.7613 9.22067 15.7613 9.622C15.7613 10.0793 15.654 10.4807 15.4393 10.826C15.234 11.1713 14.926 11.568 14.5153 12.016C14.2633 12.2867 14.0627 12.5153 13.9133 12.702C13.7733 12.8887 13.666 13.0847 13.5913 13.29C13.5633 13.374 13.5307 13.5 13.4933 13.668C13.4187 13.7987 13.3533 13.892 13.2973 13.948C13.2413 14.004 13.162 14.032 13.0593 14.032H11.0993ZM11.1273 17C11.0247 17 10.9407 16.9673 10.8753 16.902C10.81 16.8367 10.7773 16.7527 10.7773 16.65V15.054C10.7773 14.9513 10.81 14.8673 10.8753 14.802C10.9407 14.7367 11.0247 14.704 11.1273 14.704H12.9193C13.022 14.704 13.106 14.7367 13.1713 14.802C13.246 14.8673 13.2833 14.9513 13.2833 15.054V16.65C13.2833 16.7527 13.246 16.8367 13.1713 16.902C13.106 16.9673 13.022 17 12.9193 17H11.1273Z" fill="white"/>
</svg>
