<svg width="21" height="21" viewBox="0 0 21 21" fill="none" xmlns="http://www.w3.org/2000/svg">
<path fill-rule="evenodd" clip-rule="evenodd" d="M10.5 20C15.7467 20 20 15.7467 20 10.5C20 5.25329 15.7467 1 10.5 1C5.25329 1 1 5.25329 1 10.5C1 15.7467 5.25329 20 10.5 20Z" stroke="#1890FF" stroke-width="1.5"/>
<path d="M7.53125 9.75C7.11704 9.75 6.78125 10.0858 6.78125 10.5C6.78125 10.9142 7.11704 11.25 7.53125 11.25V9.75ZM13.4688 11.25C13.883 11.25 14.2188 10.9142 14.2188 10.5C14.2188 10.0858 13.883 9.75 13.4688 9.75V11.25ZM7.53125 11.25H13.4688V9.75H7.53125V11.25Z" fill="#1890FF"/>
</svg>
