<svg width="26" height="26" viewBox="0 0 26 26" fill="none" xmlns="http://www.w3.org/2000/svg">
<path d="M21.125 7.92188H17.6719V7.51562C17.6719 4.93594 15.5797 2.84375 13 2.84375C10.4203 2.84375 8.32813 4.93594 8.32813 7.51562V7.92188H4.875C4.42559 7.92188 4.0625 8.28496 4.0625 8.73438V22.3438C4.0625 22.7932 4.42559 23.1562 4.875 23.1562H21.125C21.5744 23.1562 21.9375 22.7932 21.9375 22.3438V8.73438C21.9375 8.28496 21.5744 7.92188 21.125 7.92188ZM10.1563 7.51562C10.1563 5.94395 11.4283 4.67188 13 4.67188C14.5717 4.67188 15.8438 5.94395 15.8438 7.51562V7.92188H10.1563V7.51562ZM20.1094 21.3281H5.89063V9.75H8.32813V11.9844C8.32813 12.0961 8.41953 12.1875 8.53125 12.1875H9.95313C10.0648 12.1875 10.1563 12.0961 10.1563 11.9844V9.75H15.8438V11.9844C15.8438 12.0961 15.9352 12.1875 16.0469 12.1875H17.4688C17.5805 12.1875 17.6719 12.0961 17.6719 11.9844V9.75H20.1094V21.3281Z" fill="#1890FF"/>
</svg>
