<svg width="24" height="24" viewBox="0 0 24 24" fill="none" xmlns="http://www.w3.org/2000/svg">
<path fill-rule="evenodd" clip-rule="evenodd" d="M13.409 0.659015L23.341 10.591C24.2197 11.4697 24.2197 12.8943 23.341 13.773L13.773 23.341C12.8943 24.2197 11.4697 24.2197 10.591 23.341L0.659016 13.409C0.237058 12.9871 3.12036e-06 12.4148 0 11.818V2.25C0 1.00734 1.00734 0 2.25 0H11.818C12.4148 3.12036e-06 12.9871 0.237058 13.409 0.659015ZM12.7123 22.2803L22.2803 12.7123C22.5727 12.4199 22.5727 11.9441 22.2803 11.6516L12.3484 1.71966C12.2067 1.578 12.0184 1.5 11.818 1.5H2.25C1.83647 1.5 1.5 1.83647 1.5 2.25V11.818C1.49945 12.017 1.57855 12.208 1.71966 12.3483L11.6517 22.2803C11.9447 22.5735 12.4197 22.573 12.7123 22.2803ZM6.75005 5.8125C7.26701 5.8125 7.6876 6.23307 7.6876 6.75001C7.6876 7.26696 7.26701 7.68753 6.75005 7.68753C6.23309 7.68753 5.8125 7.26696 5.8125 6.75001C5.8125 6.23307 6.23309 5.8125 6.75005 5.8125ZM4.5 6.75C4.5 5.50735 5.50733 4.5 6.74996 4.5C7.99259 4.5 8.99991 5.50735 8.99991 6.75C8.99991 7.99266 7.99259 9 6.74996 9C5.50733 9 4.5 7.99266 4.5 6.75Z" fill="#1890FF"/>
</svg>
