<svg width="24" height="24" viewBox="0 0 24 24" fill="none" xmlns="http://www.w3.org/2000/svg">
<path d="M19.3175 16.4039C18.7308 15.8168 18.0454 15.3376 17.2925 14.9883C18.3542 14.1281 19.0316 12.8156 19.0316 11.3438C19.0316 8.74688 16.8659 6.61641 14.2691 6.65625C11.712 6.69609 9.65187 8.77969 9.65187 11.3438C9.65187 12.8156 10.3316 14.1281 11.3909 14.9883C10.6379 15.3373 9.95238 15.8166 9.36593 16.4039C8.08624 17.6859 7.35968 19.3781 7.3128 21.1828C7.31218 21.2078 7.31657 21.2327 7.32571 21.256C7.33485 21.2793 7.34856 21.3005 7.36604 21.3184C7.38351 21.3363 7.40439 21.3506 7.42745 21.3603C7.45051 21.37 7.47528 21.375 7.5003 21.375H8.8128C8.91358 21.375 8.99796 21.2953 9.0003 21.1945C9.04483 19.8352 9.59562 18.5625 10.5636 17.5969C11.0589 17.0989 11.6481 16.7041 12.297 16.4354C12.9459 16.1667 13.6417 16.0293 14.3441 16.0312C15.7714 16.0312 17.1144 16.5867 18.1245 17.5969C19.0901 18.5625 19.6409 19.8352 19.6878 21.1945C19.6901 21.2953 19.7745 21.375 19.8753 21.375H21.1878C21.2128 21.375 21.2376 21.37 21.2607 21.3603C21.2837 21.3506 21.3046 21.3363 21.3221 21.3184C21.3395 21.3005 21.3533 21.2793 21.3624 21.256C21.3715 21.2327 21.3759 21.2078 21.3753 21.1828C21.3284 19.3781 20.6019 17.6859 19.3175 16.4039ZM14.3441 14.3438C13.5425 14.3438 12.7878 14.032 12.223 13.4648C11.9395 13.1836 11.7156 12.8482 11.5646 12.4785C11.4136 12.1088 11.3386 11.7126 11.3441 11.3133C11.3511 10.5445 11.6581 9.80156 12.1948 9.25078C12.7573 8.67422 13.5097 8.35313 14.3136 8.34375C15.1081 8.33672 15.8792 8.64609 16.4464 9.20156C17.0276 9.77109 17.3464 10.5328 17.3464 11.3438C17.3464 12.1453 17.0347 12.8977 16.4675 13.4648C16.1892 13.7444 15.8583 13.9661 15.4938 14.1169C15.1293 14.2678 14.7385 14.3449 14.3441 14.3438ZM8.47296 11.9625C8.45187 11.7586 8.44015 11.5523 8.44015 11.3438C8.44015 10.9711 8.4753 10.6078 8.54093 10.2539C8.55733 10.1695 8.5128 10.0828 8.43546 10.0477C8.11671 9.90469 7.82374 9.70781 7.57062 9.45938C7.27235 9.17017 7.03764 8.82197 6.88147 8.43699C6.7253 8.05201 6.65109 7.6387 6.66358 7.22344C6.68468 6.47109 6.98702 5.75625 7.51437 5.21719C8.09327 4.62422 8.8714 4.30078 9.69874 4.31016C10.4464 4.31719 11.1683 4.60547 11.7144 5.11641C11.8995 5.28984 12.0589 5.48203 12.1925 5.68828C12.2394 5.76094 12.3308 5.79141 12.4105 5.76328C12.823 5.62031 13.2589 5.51953 13.7066 5.47266C13.8378 5.45859 13.9128 5.31797 13.8542 5.20078C13.0925 3.69375 11.5362 2.65313 9.73624 2.625C7.13702 2.58516 4.9714 4.71563 4.9714 7.31016C4.9714 8.78203 5.64874 10.0945 6.71046 10.9547C5.96515 11.2992 5.27843 11.775 4.68312 12.3703C3.39874 13.6523 2.67218 15.3445 2.6253 17.1516C2.62468 17.1766 2.62906 17.2015 2.63821 17.2248C2.64735 17.248 2.66106 17.2693 2.67853 17.2872C2.69601 17.3051 2.71689 17.3193 2.73995 17.329C2.76301 17.3388 2.78778 17.3438 2.8128 17.3438H4.12765C4.22843 17.3438 4.3128 17.2641 4.31515 17.1633C4.35968 15.8039 4.91046 14.5312 5.87843 13.5656C6.56749 12.8766 7.41124 12.3984 8.33233 12.1664C8.42374 12.143 8.48468 12.0563 8.47296 11.9625Z" fill="#1890FF"/>
</svg>
