<svg width="24" height="20" viewBox="0 0 24 20" fill="none" xmlns="http://www.w3.org/2000/svg">
<path fill-rule="evenodd" clip-rule="evenodd" d="M8.39996 9.59998C11.0512 9.59998 13.1999 7.45123 13.1999 4.79999C13.1999 2.14875 11.0512 0 8.39996 0C5.74873 0 3.59999 2.14875 3.59999 4.79999C3.59999 7.45123 5.74873 9.59998 8.39996 9.59998ZM23.7 8.39999H20.4V5.09999C20.4 4.93499 20.265 4.79999 20.1 4.79999H19.5C19.335 4.79999 19.2 4.93499 19.2 5.09999V8.39999H15.9C15.735 8.39999 15.6 8.53499 15.6 8.69998V9.29998C15.6 9.46498 15.735 9.59998 15.9 9.59998H19.2V12.9C19.2 13.065 19.335 13.2 19.5 13.2H20.1C20.265 13.2 20.4 13.065 20.4 12.9V9.59998H23.7C23.865 9.59998 24 9.46498 24 9.29998V8.69998C24 8.53499 23.865 8.39999 23.7 8.39999ZM11.76 10.8C11.2882 10.8 10.9237 10.9153 10.5144 11.0448C9.99 11.2107 9.39192 11.4 8.39998 11.4C7.4088 11.4 6.81206 11.211 6.28834 11.0452L6.28833 11.0452C5.8788 10.9155 5.51391 10.8 5.03999 10.8C2.2575 10.8 0 13.0575 0 15.84V17.4C0 18.3937 0.806248 19.2 1.8 19.2H15C15.9937 19.2 16.8 18.3937 16.8 17.4V15.84C16.8 13.0575 14.5425 10.8 11.76 10.8ZM15 18C15.33 18 15.6 17.73 15.6 17.4V15.84C15.6 13.7212 13.8787 12 11.76 12C11.4777 12 11.1954 12.0885 10.8476 12.1975C10.29 12.3724 9.56405 12.6 8.39998 12.6C7.23316 12.6 6.50766 12.3722 5.95069 12.1973L5.95068 12.1973C5.6037 12.0884 5.32212 12 5.03999 12C2.92124 12 1.2 13.7212 1.2 15.84V17.4C1.2 17.73 1.47 18 1.8 18H15ZM11.9999 4.79999C11.9999 2.81624 10.3837 1.2 8.39996 1.2C6.41623 1.2 4.79999 2.81624 4.79999 4.79999C4.79999 6.78374 6.41623 8.39998 8.39996 8.39998C10.3837 8.39998 11.9999 6.78374 11.9999 4.79999Z" fill="#1890FF"/>
</svg>
