<svg width="24" height="20" viewBox="0 0 24 20" fill="none" xmlns="http://www.w3.org/2000/svg">
<path fill-rule="evenodd" clip-rule="evenodd" d="M13.3746 5.49999C13.3746 7.98554 11.3602 9.99999 8.87469 9.99999C6.38919 9.99999 4.37477 7.98554 4.37477 5.49999C4.37477 3.01445 6.38919 1 8.87469 1C11.3602 1 13.3746 3.01445 13.3746 5.49999ZM12.2501 5.49999C12.2501 3.64023 10.7349 2.125 8.87515 2.125C7.01542 2.125 5.50021 3.64023 5.50021 5.49999C5.50021 7.35975 7.01542 8.87498 8.87515 8.87498C10.7349 8.87498 12.2501 7.35975 12.2501 5.49999ZM23.1692 9.30037L21.9493 8.08045C21.7278 7.85897 21.4395 7.74998 21.1477 7.74998C20.8594 7.74998 20.5676 7.85897 20.3461 8.08045L12.5238 15.9062L12.2566 18.3039C12.2144 18.68 12.5098 19 12.8789 19C12.9035 19 12.9246 19 12.9492 18.9964L15.3469 18.7293L23.1692 10.907C23.6087 10.4605 23.6087 9.74334 23.1692 9.30037ZM13.4415 17.8117L14.8267 17.6535L20.3428 12.1375L19.1123 10.9071L13.5962 16.4231L13.4415 17.8117ZM21.1375 11.343L19.907 10.1125L21.1445 8.87504H21.148L21.155 8.87855L22.375 10.109L21.1375 11.343ZM6.5788 12.435C6.2535 12.3329 5.98952 12.25 5.72502 12.25C3.73868 12.25 2.125 13.8637 2.125 15.85V17.3125C2.125 17.6219 2.37813 17.875 2.68751 17.875H11.1707L11.1356 18.1773C11.1039 18.4586 11.1496 18.7398 11.2481 19H2.68751C1.75586 19 1 18.2441 1 17.3125V15.85C1 13.2414 3.11641 11.125 5.72502 11.1285C6.16932 11.1285 6.51141 11.2368 6.89535 11.3584C7.38634 11.5139 7.94579 11.691 8.87503 11.691C9.80497 11.691 10.3657 11.5136 10.8573 11.358C11.241 11.2366 11.5827 11.1285 12.025 11.1285C13.0621 11.1285 14.0149 11.473 14.7954 12.0426L13.9938 12.8441C13.4278 12.4715 12.7528 12.25 12.025 12.25C11.7604 12.25 11.4957 12.333 11.1697 12.4352C10.6469 12.5991 9.96635 12.8125 8.87503 12.8125C7.78112 12.8125 7.10096 12.5989 6.5788 12.435Z" fill="#1890FF"/>
<path d="M21.9493 8.08045L22.02 8.00974H22.02L21.9493 8.08045ZM23.1692 9.30037L23.2402 9.22994L23.2399 9.22966L23.1692 9.30037ZM20.3461 8.08045L20.2754 8.00974L20.2754 8.00976L20.3461 8.08045ZM12.5238 15.9062L12.4531 15.8355L12.4283 15.8603L12.4244 15.8951L12.5238 15.9062ZM12.2566 18.3039L12.356 18.315L12.356 18.3149L12.2566 18.3039ZM12.9492 18.9964L12.9381 18.897L12.9351 18.8974L12.9492 18.9964ZM15.3469 18.7293L15.358 18.8286L15.3928 18.8248L15.4176 18.8L15.3469 18.7293ZM23.1692 10.907L23.2399 10.9777L23.2405 10.9772L23.1692 10.907ZM14.8267 17.6535L14.8381 17.7529L14.8728 17.7489L14.8974 17.7242L14.8267 17.6535ZM13.4415 17.8117L13.3422 17.8006L13.3283 17.9253L13.4529 17.9111L13.4415 17.8117ZM20.3428 12.1375L20.4135 12.2082L20.4843 12.1375L20.4135 12.0668L20.3428 12.1375ZM19.1123 10.9071L19.1831 10.8364L19.1123 10.7656L19.0416 10.8364L19.1123 10.9071ZM13.5962 16.4231L13.5255 16.3523L13.5007 16.3771L13.4969 16.412L13.5962 16.4231ZM19.907 10.1125L19.8363 10.0418L19.7656 10.1125L19.8363 10.1832L19.907 10.1125ZM21.1375 11.343L21.0667 11.4137L21.1374 11.4843L21.2081 11.4138L21.1375 11.343ZM21.1445 8.87504V8.77504H21.1031L21.0738 8.80433L21.1445 8.87504ZM21.148 8.87504L21.1927 8.7856L21.1716 8.77504H21.148V8.87504ZM21.155 8.87855L21.226 8.80815L21.2145 8.79647L21.1998 8.78911L21.155 8.87855ZM22.375 10.109L22.4456 10.1798L22.5162 10.1094L22.446 10.0386L22.375 10.109ZM6.5788 12.435L6.60876 12.3396H6.60876L6.5788 12.435ZM11.1707 17.875L11.2701 17.8865L11.283 17.775H11.1707V17.875ZM11.1356 18.1773L11.0362 18.1658L11.0362 18.1661L11.1356 18.1773ZM11.2481 19V19.1H11.3928L11.3416 18.9646L11.2481 19ZM5.72502 11.1285L5.72488 11.2285H5.72502V11.1285ZM6.89535 11.3584L6.86516 11.4537L6.89535 11.3584ZM10.8573 11.358L10.8875 11.4534L10.8573 11.358ZM14.7954 12.0426L14.8661 12.1133L14.9487 12.0307L14.8543 11.9618L14.7954 12.0426ZM13.9938 12.8441L13.9388 12.9276L14.0069 12.9725L14.0645 12.9148L13.9938 12.8441ZM11.1697 12.4352L11.1996 12.5306L11.1697 12.4352ZM8.87469 10.1C11.4154 10.1 13.4746 8.04076 13.4746 5.49999H13.2746C13.2746 7.93031 11.305 9.89999 8.87469 9.89999V10.1ZM4.27477 5.49999C4.27477 8.04076 6.33396 10.1 8.87469 10.1V9.89999C6.44442 9.89999 4.47477 7.93031 4.47477 5.49999H4.27477ZM8.87469 0.9C6.33396 0.9 4.27477 2.95922 4.27477 5.49999H4.47477C4.47477 3.06968 6.44442 1.1 8.87469 1.1V0.9ZM13.4746 5.49999C13.4746 2.95922 11.4154 0.9 8.87469 0.9V1.1C11.305 1.1 13.2746 3.06968 13.2746 5.49999H13.4746ZM8.87515 2.225C10.6797 2.225 12.1501 3.69546 12.1501 5.49999H12.3501C12.3501 3.585 10.7901 2.025 8.87515 2.025V2.225ZM5.60021 5.49999C5.60021 3.69546 7.07065 2.225 8.87515 2.225V2.025C6.96019 2.025 5.40021 3.585 5.40021 5.49999H5.60021ZM8.87515 8.77498C7.07065 8.77498 5.60021 7.30453 5.60021 5.49999H5.40021C5.40021 7.41498 6.96019 8.97498 8.87515 8.97498V8.77498ZM12.1501 5.49999C12.1501 7.30453 10.6797 8.77498 8.87515 8.77498V8.97498C10.7901 8.97498 12.3501 7.41498 12.3501 5.49999H12.1501ZM21.8786 8.15116L23.0985 9.37108L23.2399 9.22966L22.02 8.00974L21.8786 8.15116ZM21.1477 7.84998C21.4144 7.84998 21.6768 7.94938 21.8786 8.15116L22.02 8.00974C21.7788 7.76855 21.4647 7.64998 21.1477 7.64998V7.84998ZM20.4169 8.15116C20.6185 7.94949 20.8844 7.84998 21.1477 7.84998V7.64998C20.8344 7.64998 20.5167 7.76844 20.2754 8.00974L20.4169 8.15116ZM12.5945 15.9769L20.4169 8.15115L20.2754 8.00976L12.4531 15.8355L12.5945 15.9769ZM12.356 18.3149L12.6232 15.9173L12.4244 15.8951L12.1572 18.2928L12.356 18.3149ZM12.8789 18.9C12.5684 18.9 12.3206 18.6309 12.356 18.315L12.1573 18.2927C12.1083 18.7291 12.4511 19.1 12.8789 19.1V18.9ZM12.9351 18.8974C12.9185 18.8998 12.9041 18.9 12.8789 18.9V19.1C12.9029 19.1 12.9307 19.1001 12.9634 19.0954L12.9351 18.8974ZM15.3358 18.6299L12.9381 18.8971L12.9603 19.0958L15.358 18.8286L15.3358 18.6299ZM23.0985 10.8363L15.2762 18.6585L15.4176 18.8L23.2399 10.9777L23.0985 10.8363ZM23.0982 9.3708C23.4988 9.77463 23.4992 10.4291 23.0979 10.8369L23.2405 10.9772C23.7181 10.4919 23.7185 9.71205 23.2402 9.22994L23.0982 9.3708ZM14.8154 17.5542L13.4302 17.7124L13.4529 17.9111L14.8381 17.7529L14.8154 17.5542ZM20.2721 12.0668L14.756 17.5828L14.8974 17.7242L20.4135 12.2082L20.2721 12.0668ZM19.0416 10.9778L20.2721 12.2082L20.4135 12.0668L19.1831 10.8364L19.0416 10.9778ZM13.6669 16.4938L19.1831 10.9778L19.0416 10.8364L13.5255 16.3523L13.6669 16.4938ZM13.5409 17.8228L13.6956 16.4341L13.4969 16.412L13.3422 17.8006L13.5409 17.8228ZM19.8363 10.1832L21.0667 11.4137L21.2082 11.2723L19.9777 10.0418L19.8363 10.1832ZM21.0738 8.80433L19.8363 10.0418L19.9777 10.1832L21.2152 8.94575L21.0738 8.80433ZM21.148 8.77504H21.1445V8.97504H21.148V8.77504ZM21.1998 8.78911L21.1927 8.7856L21.1033 8.96448L21.1103 8.96799L21.1998 8.78911ZM22.446 10.0386L21.226 8.80815L21.084 8.94896L22.3039 10.1794L22.446 10.0386ZM21.2081 11.4138L22.4456 10.1798L22.3043 10.0382L21.0668 11.2722L21.2081 11.4138ZM5.72502 12.35C5.97119 12.35 6.21965 12.427 6.54885 12.5304L6.60876 12.3396C6.28734 12.2387 6.00784 12.15 5.72502 12.15V12.35ZM2.225 15.85C2.225 13.9189 3.79391 12.35 5.72502 12.35V12.15C3.68345 12.15 2.025 13.8084 2.025 15.85H2.225ZM2.225 17.3125V15.85H2.025V17.3125H2.225ZM2.68751 17.775C2.43336 17.775 2.225 17.5666 2.225 17.3125H2.025C2.025 17.6771 2.3229 17.975 2.68751 17.975V17.775ZM11.1707 17.775H2.68751V17.975H11.1707V17.775ZM11.2349 18.1889L11.2701 17.8865L11.0714 17.8634L11.0362 18.1658L11.2349 18.1889ZM11.3416 18.9646C11.2479 18.717 11.2053 18.4517 11.235 18.1885L11.0362 18.1661C11.0025 18.4655 11.0514 18.7627 11.1546 19.0354L11.3416 18.9646ZM2.68751 19.1H11.2481V18.9H2.68751V19.1ZM0.9 17.3125C0.9 18.2994 1.70063 19.1 2.68751 19.1V18.9C1.81109 18.9 1.1 18.1889 1.1 17.3125H0.9ZM0.9 15.85V17.3125H1.1V15.85H0.9ZM5.72515 11.0285C3.06119 11.0249 0.9 13.1862 0.9 15.85H1.1C1.1 13.2966 3.17164 11.2251 5.72488 11.2285L5.72515 11.0285ZM6.92553 11.263C6.54225 11.1417 6.18661 11.0285 5.72502 11.0285V11.2285C6.15203 11.2285 6.48056 11.3319 6.86516 11.4537L6.92553 11.263ZM8.87503 11.591C7.9612 11.591 7.41336 11.4175 6.92553 11.263L6.86516 11.4537C7.35932 11.6102 7.93038 11.791 8.87503 11.791V11.591ZM10.8271 11.2627C10.3387 11.4172 9.78957 11.591 8.87503 11.591V11.791C9.82038 11.791 10.3927 11.6099 10.8875 11.4534L10.8271 11.2627ZM12.025 11.0285C11.5654 11.0285 11.2102 11.1415 10.8271 11.2627L10.8875 11.4534C11.2719 11.3317 11.6 11.2285 12.025 11.2285V11.0285ZM14.8543 11.9618C14.058 11.3807 13.0848 11.0285 12.025 11.0285V11.2285C13.0395 11.2285 13.9718 11.5654 14.7364 12.1233L14.8543 11.9618ZM14.0645 12.9148L14.8661 12.1133L14.7246 11.9718L13.9231 12.7734L14.0645 12.9148ZM12.025 12.35C12.7321 12.35 13.3882 12.5651 13.9388 12.9276L14.0488 12.7606C13.4674 12.3778 12.7734 12.15 12.025 12.15V12.35ZM11.1996 12.5306C11.5295 12.4272 11.7787 12.35 12.025 12.35V12.15C11.7421 12.15 11.4619 12.2388 11.1398 12.3398L11.1996 12.5306ZM8.87503 12.9125C9.98158 12.9125 10.6736 12.6955 11.1996 12.5306L11.1398 12.3398C10.6202 12.5027 9.95111 12.7125 8.87503 12.7125V12.9125ZM6.54885 12.5304C7.07424 12.6954 7.76589 12.9125 8.87503 12.9125V12.7125C7.79636 12.7125 7.12768 12.5025 6.60876 12.3396L6.54885 12.5304Z" fill="#1890FF"/>
</svg>
