<svg width="24" height="21" viewBox="0 0 24 21" fill="none" xmlns="http://www.w3.org/2000/svg">
<path fill-rule="evenodd" clip-rule="evenodd" d="M21.75 3H21V2.25C21 1.00734 19.9927 0 18.75 0H4.5C2.01469 0 0 2.01469 0 4.5V16.5C0 18.9853 2.01469 21 4.5 21H21C22.657 21 24 19.657 24 18V5.25C24 4.00734 22.9927 3 21.75 3ZM18 10.5C17.1717 10.5 16.5 11.1717 16.5 12C16.5 12.8283 17.1717 13.5 18 13.5C18.8283 13.5 19.5 12.8283 19.5 12C19.5 11.1717 18.8283 10.5 18 10.5ZM21 19.5C21.8269 19.5 22.5 18.8269 22.5 18V5.25C22.5 4.83656 22.1634 4.5 21.75 4.5H5.24999C4.83562 4.5 4.49999 4.16437 4.49999 3.75C4.49999 3.33562 4.83562 3 5.24999 3H19.5V2.25C19.5 1.83656 19.1634 1.5 18.75 1.5H4.49999C2.84577 1.5 1.49999 2.84578 1.49999 4.5V16.5C1.49999 18.1542 2.84577 19.5 4.49999 19.5H21Z" fill="#1890FF"/>
</svg>
